<?xml version="1.0" encoding="utf-8"?>
<svg viewBox="0 0 243.66 63.778" color-interpolation-filters="sRGB" style="margin: auto;" xmlns="http://www.w3.org/2000/svg">
  <rect data-v-6805eed4="" x="0" y="0" width="100%" height="100%" fill="#333333" fill-opacity="0" class="background"/>
  <g data-v-6805eed4="" fill="#000000" class="icon-text-wrapper icon-svg-group iconsvg" transform="matrix(1, 0, 0, 1, 0.8049240112304705, 0.8881080150604248)">
    <g class="iconsvg-imagesvg" transform="translate(0,0)">
      <g>
        <rect fill="#000000" fill-opacity="0" stroke-width="2" x="0" y="0" width="60" height="62.00204606752023" class="image-rect"/>
        <svg x="0" y="0" width="60" height="62.00204606752023" filtersec="colorsb9648121199" class="image-svg-svg primary" style="overflow: visible;">
          <svg xmlns="http://www.w3.org/2000/svg" viewBox="-0.027530694380402565 -0.0020903043914586306 111.73080444335938 115.45925903320312">
            <title>资源 47</title>
            <path d="M0 82.09c0-4.83.06-9.66 0-14.48a3.31 3.31 0 0 1 1.85-3.41q12.48-7.1 24.85-14.38a3.12 3.12 0 0 1 3.64 0Q43 57.32 55.82 64.63a3.15 3.15 0 0 1 1.9 3.11c-.08 9.9 0 19.81-.12 29.71a4 4 0 0 1-1.71 2.85c-8.29 4.94-16.68 9.71-25 14.61a2.93 2.93 0 0 1-3.41 0Q14.79 107.43 2 100.16a3.5 3.5 0 0 1-2-3.59c.09-4.82 0-9.65 0-14.48z" fill="#2d53be"/>
            <path d="M87.73 27.45c0 3.83-.07 7.66 0 11.49a3.47 3.47 0 0 1-2 3.6c-7.11 4-14.14 8.16-21.25 12.15a3.46 3.46 0 0 1-2.85.06c-7.12-4-14.15-8.15-21.25-12.17a3.51 3.51 0 0 1-2.08-3.53q.15-11.62 0-23.24a3.3 3.3 0 0 1 2-3.33C47.46 8.45 54.48 4.29 61.6.31a3.69 3.69 0 0 1 3.1.06c7 3.94 14 8.07 21 12.05a3.42 3.42 0 0 1 2 3.53c-.05 3.83.03 7.66.03 11.5z" fill="#2595db"/>
            <path d="M111.67 78c0 3.57.11 7.16-.07 10.73a3.87 3.87 0 0 1-1.55 2.7q-9.3 5.59-18.78 10.89a3.46 3.46 0 0 1-2.87 0q-9.27-5.14-18.35-10.62a3.53 3.53 0 0 1-1.44-2.52c-.11-7.24-.12-14.48 0-21.72a3.82 3.82 0 0 1 1.62-2.66q9.21-5.53 18.58-10.8a3.73 3.73 0 0 1 3.1 0q9.16 5.09 18.13 10.51a3.85 3.85 0 0 1 1.56 2.71c.18 3.62.07 7.21.07 10.78z" fill="#242a9b"/>
          </svg>
        </svg>
      </g>
    </g>
    <g transform="translate(67,4.603797912597656)">
      <g data-gra="path-name" fill-rule="" class="tp-name iconsvg-namesvg" transform="translate(0,0)">
        <g transform="scale(1)">
          <g>
            <path d="M40.83-34.15L40.83 0 34.02 0 34.02-9.23 10.06-9.23 10.06 0 3.25 0 3.25-18.79Q3.25-22.91 4.67-26.37 6.08-29.83 8.6-32.32 11.11-34.8 14.55-36.19 17.98-37.58 22.04-37.58L22.04-37.58 37.4-37.58Q38.11-37.58 38.74-37.32 39.37-37.06 39.84-36.59 40.31-36.12 40.57-35.49 40.83-34.86 40.83-34.15L40.83-34.15ZM10.06-18.79L10.06-16.04 34.02-16.04 34.02-30.77 22.04-30.77Q21.73-30.77 20.72-30.68 19.71-30.59 18.39-30.22 17.06-29.85 15.59-29.09 14.13-28.33 12.89-26.99 11.66-25.66 10.86-23.65 10.06-21.65 10.06-18.79L10.06-18.79ZM84.86-11.06L84.86-11.06Q84.86-9.04 84.35-7.43 83.84-5.82 83-4.59 82.16-3.35 81.04-2.49 79.91-1.62 78.7-1.07 77.5-0.52 76.25-0.26 75.01 0 73.91 0L73.91 0 47.62 0 47.62-6.81 73.91-6.81Q75.87-6.81 76.96-7.97 78.05-9.12 78.05-11.06L78.05-11.06Q78.05-12 77.76-12.79 77.47-13.58 76.94-14.15 76.4-14.73 75.62-15.04 74.85-15.36 73.91-15.36L73.91-15.36 58.24-15.36Q56.58-15.36 54.67-15.95 52.76-16.54 51.12-17.85 49.48-19.16 48.39-21.28 47.31-23.4 47.31-26.47L47.31-26.47Q47.31-29.54 48.39-31.65 49.48-33.76 51.12-35.08 52.76-36.4 54.67-36.99 56.58-37.58 58.24-37.58L58.24-37.58 81.43-37.58 81.43-30.77 58.24-30.77Q56.3-30.77 55.21-29.59 54.12-28.41 54.12-26.47L54.12-26.47Q54.12-24.5 55.21-23.36 56.3-22.22 58.24-22.22L58.24-22.22 73.91-22.22 73.96-22.22Q75.06-22.2 76.29-21.92 77.52-21.65 78.74-21.07 79.96-20.5 81.06-19.62 82.16-18.74 83.02-17.51 83.87-16.28 84.37-14.68 84.86-13.08 84.86-11.06ZM134.27-34.67L134.27 0 127.4 0 127.4-22.38 115.32-1.13Q114.87-0.31 114.07 0.1 113.27 0.52 112.36 0.52L112.36 0.52Q111.46 0.52 110.69 0.1 109.92-0.31 109.47-1.13L109.47-1.13 97.34-22.38 97.34 0 90.52 0 90.52-34.67Q90.52-35.85 91.22-36.77 91.91-37.69 93.04-38L93.04-38Q93.59-38.13 94.14-38.09 94.69-38.05 95.2-37.86 95.71-37.66 96.13-37.31 96.55-36.95 96.84-36.46L96.84-36.46 112.36-9.49 127.87-36.46Q128.47-37.45 129.54-37.87 130.6-38.29 131.75-38L131.75-38Q132.85-37.69 133.56-36.77 134.27-35.85 134.27-34.67L134.27-34.67ZM178.3-11.06L178.3-11.06Q178.3-9.04 177.79-7.43 177.27-5.82 176.44-4.59 175.6-3.35 174.47-2.49 173.34-1.62 172.14-1.07 170.93-0.52 169.69-0.26 168.44 0 167.34 0L167.34 0 141.05 0 141.05-6.81 167.34-6.81Q169.31-6.81 170.39-7.97 171.48-9.12 171.48-11.06L171.48-11.06Q171.48-12 171.19-12.79 170.91-13.58 170.37-14.15 169.83-14.73 169.06-15.04 168.28-15.36 167.34-15.36L167.34-15.36 151.67-15.36Q150.02-15.36 148.1-15.95 146.19-16.54 144.55-17.85 142.91-19.16 141.83-21.28 140.74-23.4 140.74-26.47L140.74-26.47Q140.74-29.54 141.83-31.65 142.91-33.76 144.55-35.08 146.19-36.4 148.1-36.99 150.02-37.58 151.67-37.58L151.67-37.58 174.86-37.58 174.86-30.77 151.67-30.77Q149.73-30.77 148.64-29.59 147.55-28.41 147.55-26.47L147.55-26.47Q147.55-24.5 148.64-23.36 149.73-22.22 151.67-22.22L151.67-22.22 167.34-22.22 167.39-22.22Q168.49-22.2 169.73-21.92 170.96-21.65 172.18-21.07 173.4-20.5 174.5-19.62 175.6-18.74 176.45-17.51 177.3-16.28 177.8-14.68 178.3-13.08 178.3-11.06Z" transform="translate(-3.25, 38.11845016479492)"/>
          </g>
        </g>
      </g>
      <g data-gra="path-slogan" fill-rule="" class="tp-slogan iconsvg-slogansvg" fill="#000000" transform="translate(5.000007629394531,44.638450622558594)">
        <rect x="0" height="1" y="3.580000400543213" width="1.7900009155273438"/>
        <rect height="1" y="3.580000400543213" width="1.7900009155273438" x="163.26000213623047"/>
        <g transform="translate(4.790000915527344,0)">
          <g transform="scale(1)">
            <path d="M1.08-7.87L1.08 0L5.74 0L5.74-0.85L2.08-0.85L2.08-3.71L5.06-3.71L5.06-4.56L2.08-4.56L2.08-7.03L5.62-7.03L5.62-7.87ZM10.75-3.20L8.39-3.20L8.76-4.40C8.90-4.84 9.04-5.28 9.17-5.72C9.30-6.15 9.42-6.60 9.54-7.06L9.59-7.06C9.72-6.60 9.84-6.15 9.97-5.72C10.10-5.28 10.24-4.84 10.38-4.40ZM11.00-2.40L11.75 0L12.82 0L10.15-7.87L9.02-7.87L6.36 0L7.38 0L8.14-2.40ZM13.96-1.72L13.36-1.02C13.70-0.66 14.11-0.38 14.58-0.17C15.05 0.04 15.56 0.14 16.12 0.14C16.53 0.14 16.90 0.09 17.23-0.03C17.56-0.15 17.84-0.31 18.07-0.51C18.30-0.71 18.48-0.95 18.61-1.22C18.73-1.50 18.79-1.79 18.79-2.10C18.79-2.39 18.75-2.64 18.67-2.86C18.58-3.08 18.47-3.27 18.32-3.44C18.18-3.60 18.01-3.75 17.81-3.87C17.61-3.99 17.40-4.10 17.17-4.20L16.06-4.68C15.90-4.74 15.74-4.81 15.59-4.89C15.44-4.97 15.30-5.05 15.17-5.15C15.04-5.25 14.94-5.37 14.86-5.50C14.79-5.63 14.75-5.80 14.75-5.99C14.75-6.35 14.88-6.63 15.15-6.83C15.42-7.04 15.77-7.14 16.21-7.14C16.58-7.14 16.91-7.07 17.20-6.94C17.49-6.81 17.76-6.63 18-6.40L18.54-7.04C18.26-7.33 17.92-7.57 17.52-7.75C17.12-7.93 16.68-8.02 16.21-8.02C15.85-8.02 15.52-7.96 15.22-7.86C14.92-7.76 14.66-7.61 14.44-7.42C14.22-7.23 14.05-7.01 13.93-6.76C13.80-6.50 13.74-6.22 13.74-5.93C13.74-5.64 13.79-5.39 13.88-5.17C13.98-4.95 14.10-4.76 14.26-4.60C14.41-4.44 14.58-4.30 14.77-4.19C14.96-4.08 15.15-3.98 15.34-3.90L16.46-3.41C16.65-3.32 16.82-3.24 16.98-3.16C17.14-3.08 17.28-2.99 17.39-2.89C17.51-2.79 17.60-2.67 17.67-2.53C17.74-2.39 17.77-2.22 17.77-2.02C17.77-1.63 17.63-1.32 17.34-1.09C17.05-0.85 16.65-0.73 16.13-0.73C15.72-0.73 15.33-0.82 14.95-1.00C14.57-1.18 14.24-1.42 13.96-1.72ZM20.34-7.87L20.34 0L21.34 0L21.34-7.87ZM23.50-7.87L23.50 0L24.44 0L24.44-4.12C24.44-4.53 24.43-4.95 24.40-5.36C24.37-5.77 24.34-6.18 24.31-6.58L24.36-6.58L25.21-4.96L28.07 0L29.10 0L29.10-7.87L28.15-7.87L28.15-3.80C28.15-3.39 28.17-2.97 28.19-2.54C28.22-2.11 28.25-1.70 28.27-1.30L28.22-1.30L27.37-2.93L24.53-7.87ZM30.80-3.94C30.80-3.30 30.89-2.72 31.07-2.21C31.24-1.71 31.49-1.28 31.80-0.93C32.11-0.58 32.48-0.32 32.92-0.13C33.35 0.05 33.82 0.14 34.34 0.14C34.87 0.14 35.35 0.06 35.77-0.11C36.19-0.29 36.52-0.50 36.78-0.77L36.78-4.08L34.20-4.08L34.20-3.25L35.87-3.25L35.87-1.20C35.71-1.06 35.50-0.94 35.25-0.86C35.00-0.77 34.73-0.73 34.45-0.73C34.03-0.73 33.65-0.81 33.33-0.96C33.01-1.11 32.73-1.33 32.51-1.61C32.29-1.89 32.13-2.23 32.01-2.62C31.89-3.02 31.84-3.46 31.84-3.96C31.84-4.45 31.90-4.89 32.02-5.28C32.15-5.67 32.32-6.01 32.54-6.28C32.77-6.56 33.04-6.77 33.36-6.92C33.68-7.07 34.04-7.14 34.44-7.14C34.84-7.14 35.17-7.07 35.43-6.93C35.69-6.79 35.92-6.62 36.12-6.41L36.68-7.04C36.45-7.28 36.15-7.51 35.79-7.71C35.43-7.91 34.97-8.02 34.43-8.02C33.90-8.02 33.42-7.92 32.98-7.73C32.54-7.55 32.15-7.28 31.83-6.92C31.51-6.57 31.25-6.14 31.07-5.64C30.89-5.14 30.80-4.57 30.80-3.94ZM41.09-7.87L41.09 0L43.60 0C44.04 0 44.44-0.05 44.81-0.14C45.18-0.24 45.49-0.38 45.76-0.58C46.02-0.77 46.22-1.01 46.37-1.30C46.51-1.58 46.58-1.92 46.58-2.30C46.58-2.85 46.42-3.28 46.10-3.59C45.78-3.90 45.34-4.10 44.76-4.19L44.76-4.24C45.22-4.36 45.57-4.57 45.79-4.89C46.02-5.21 46.13-5.56 46.13-5.95C46.13-6.30 46.06-6.59 45.93-6.83C45.80-7.08 45.61-7.28 45.38-7.43C45.14-7.58 44.86-7.69 44.53-7.76C44.19-7.84 43.83-7.87 43.43-7.87ZM43.25-4.51L42.08-4.51L42.08-7.08L43.30-7.08C43.91-7.08 44.37-6.99 44.68-6.80C44.99-6.61 45.14-6.30 45.14-5.87C45.14-5.43 45.00-5.09 44.71-4.86C44.41-4.63 43.93-4.51 43.25-4.51ZM43.45-0.79L42.08-0.79L42.08-3.77L43.45-3.77C44.15-3.77 44.68-3.65 45.05-3.43C45.42-3.20 45.60-2.84 45.60-2.35C45.60-1.82 45.41-1.42 45.04-1.17C44.66-0.92 44.13-0.79 43.45-0.79ZM48.11-7.87L48.11-3.25C48.11-2.62 48.18-2.09 48.32-1.66C48.47-1.22 48.67-0.87 48.92-0.61C49.17-0.34 49.47-0.15 49.82-0.03C50.17 0.09 50.54 0.14 50.94 0.14C51.34 0.14 51.71 0.09 52.06-0.03C52.40-0.15 52.70-0.34 52.95-0.61C53.20-0.87 53.40-1.22 53.54-1.66C53.69-2.09 53.76-2.62 53.76-3.25L53.76-7.87L52.80-7.87L52.80-3.23C52.80-2.76 52.75-2.36 52.66-2.04C52.56-1.72 52.43-1.46 52.26-1.27C52.09-1.08 51.90-0.94 51.67-0.86C51.45-0.77 51.20-0.73 50.94-0.73C50.68-0.73 50.44-0.77 50.22-0.86C50.00-0.94 49.80-1.08 49.64-1.27C49.47-1.46 49.34-1.72 49.25-2.04C49.15-2.36 49.10-2.76 49.10-3.23L49.10-7.87ZM55.79-1.72L55.19-1.02C55.53-0.66 55.94-0.38 56.41-0.17C56.88 0.04 57.40 0.14 57.95 0.14C58.36 0.14 58.74 0.09 59.06-0.03C59.39-0.15 59.67-0.31 59.90-0.51C60.14-0.71 60.31-0.95 60.44-1.22C60.56-1.50 60.62-1.79 60.62-2.10C60.62-2.39 60.58-2.64 60.50-2.86C60.41-3.08 60.30-3.27 60.16-3.44C60.01-3.60 59.84-3.75 59.64-3.87C59.44-3.99 59.23-4.10 59.00-4.20L57.89-4.68C57.73-4.74 57.57-4.81 57.42-4.89C57.27-4.97 57.13-5.05 57.00-5.15C56.87-5.25 56.77-5.37 56.69-5.50C56.62-5.63 56.58-5.80 56.58-5.99C56.58-6.35 56.71-6.63 56.98-6.83C57.25-7.04 57.60-7.14 58.04-7.14C58.41-7.14 58.74-7.07 59.03-6.94C59.33-6.81 59.59-6.63 59.83-6.40L60.37-7.04C60.09-7.33 59.75-7.57 59.35-7.75C58.95-7.93 58.52-8.02 58.04-8.02C57.68-8.02 57.35-7.96 57.05-7.86C56.75-7.76 56.49-7.61 56.27-7.42C56.05-7.23 55.88-7.01 55.76-6.76C55.63-6.50 55.57-6.22 55.57-5.93C55.57-5.64 55.62-5.39 55.72-5.17C55.81-4.95 55.94-4.76 56.09-4.60C56.24-4.44 56.41-4.30 56.60-4.19C56.80-4.08 56.98-3.98 57.17-3.90L58.30-3.41C58.48-3.32 58.65-3.24 58.81-3.16C58.97-3.08 59.11-2.99 59.23-2.89C59.34-2.79 59.43-2.67 59.50-2.53C59.57-2.39 59.60-2.22 59.60-2.02C59.60-1.63 59.46-1.32 59.17-1.09C58.88-0.85 58.48-0.73 57.96-0.73C57.55-0.73 57.16-0.82 56.78-1.00C56.40-1.18 56.07-1.42 55.79-1.72ZM62.17-7.87L62.17 0L63.17 0L63.17-7.87ZM65.33-7.87L65.33 0L66.28 0L66.28-4.12C66.28-4.53 66.26-4.95 66.23-5.36C66.21-5.77 66.18-6.18 66.14-6.58L66.19-6.58L67.04-4.96L69.90 0L70.93 0L70.93-7.87L69.98-7.87L69.98-3.80C69.98-3.39 70.00-2.97 70.03-2.54C70.05-2.11 70.08-1.70 70.10-1.30L70.06-1.30L69.20-2.93L66.36-7.87ZM73.09-7.87L73.09 0L77.75 0L77.75-0.85L74.09-0.85L74.09-3.71L77.08-3.71L77.08-4.56L74.09-4.56L74.09-7.03L77.63-7.03L77.63-7.87ZM79.44-1.72L78.84-1.02C79.18-0.66 79.59-0.38 80.06-0.17C80.54 0.04 81.05 0.14 81.60 0.14C82.02 0.14 82.39 0.09 82.72-0.03C83.04-0.15 83.32-0.31 83.56-0.51C83.79-0.71 83.97-0.95 84.09-1.22C84.21-1.50 84.28-1.79 84.28-2.10C84.28-2.39 84.23-2.64 84.15-2.86C84.07-3.08 83.95-3.27 83.81-3.44C83.66-3.60 83.49-3.75 83.29-3.87C83.09-3.99 82.88-4.10 82.66-4.20L81.54-4.68C81.38-4.74 81.22-4.81 81.07-4.89C80.92-4.97 80.78-5.05 80.65-5.15C80.52-5.25 80.42-5.37 80.35-5.50C80.27-5.63 80.23-5.80 80.23-5.99C80.23-6.35 80.37-6.63 80.63-6.83C80.90-7.04 81.26-7.14 81.70-7.14C82.06-7.14 82.39-7.07 82.69-6.94C82.98-6.81 83.24-6.63 83.48-6.40L84.02-7.04C83.74-7.33 83.40-7.57 83.00-7.75C82.60-7.93 82.17-8.02 81.70-8.02C81.34-8.02 81.01-7.96 80.71-7.86C80.41-7.76 80.15-7.61 79.93-7.42C79.71-7.23 79.53-7.01 79.41-6.76C79.29-6.50 79.22-6.22 79.22-5.93C79.22-5.64 79.27-5.39 79.37-5.17C79.46-4.95 79.59-4.76 79.74-4.60C79.89-4.44 80.06-4.30 80.26-4.19C80.45-4.08 80.64-3.98 80.82-3.90L81.95-3.41C82.13-3.32 82.30-3.24 82.46-3.16C82.62-3.08 82.76-2.99 82.88-2.89C82.99-2.79 83.09-2.67 83.15-2.53C83.22-2.39 83.26-2.22 83.26-2.02C83.26-1.63 83.11-1.32 82.82-1.09C82.54-0.85 82.13-0.73 81.61-0.73C81.20-0.73 80.81-0.82 80.43-1.00C80.05-1.18 79.72-1.42 79.44-1.72ZM85.68-1.72L85.08-1.02C85.42-0.66 85.83-0.38 86.30-0.17C86.78 0.04 87.29 0.14 87.84 0.14C88.26 0.14 88.63 0.09 88.96-0.03C89.28-0.15 89.56-0.31 89.80-0.51C90.03-0.71 90.21-0.95 90.33-1.22C90.45-1.50 90.52-1.79 90.52-2.10C90.52-2.39 90.47-2.64 90.39-2.86C90.31-3.08 90.19-3.27 90.05-3.44C89.90-3.60 89.73-3.75 89.53-3.87C89.33-3.99 89.12-4.10 88.90-4.20L87.78-4.68C87.62-4.74 87.46-4.81 87.31-4.89C87.16-4.97 87.02-5.05 86.89-5.15C86.76-5.25 86.66-5.37 86.59-5.50C86.51-5.63 86.47-5.80 86.47-5.99C86.47-6.35 86.61-6.63 86.87-6.83C87.14-7.04 87.50-7.14 87.94-7.14C88.30-7.14 88.63-7.07 88.93-6.94C89.22-6.81 89.48-6.63 89.72-6.40L90.26-7.04C89.98-7.33 89.64-7.57 89.24-7.75C88.84-7.93 88.41-8.02 87.94-8.02C87.58-8.02 87.25-7.96 86.95-7.86C86.65-7.76 86.39-7.61 86.17-7.42C85.95-7.23 85.77-7.01 85.65-6.76C85.53-6.50 85.46-6.22 85.46-5.93C85.46-5.64 85.51-5.39 85.61-5.17C85.70-4.95 85.83-4.76 85.98-4.60C86.13-4.44 86.30-4.30 86.50-4.19C86.69-4.08 86.88-3.98 87.06-3.90L88.19-3.41C88.37-3.32 88.54-3.24 88.70-3.16C88.86-3.08 89.00-2.99 89.12-2.89C89.23-2.79 89.33-2.67 89.39-2.53C89.46-2.39 89.50-2.22 89.50-2.02C89.50-1.63 89.35-1.32 89.06-1.09C88.78-0.85 88.37-0.73 87.85-0.73C87.44-0.73 87.05-0.82 86.67-1.00C86.29-1.18 85.96-1.42 85.68-1.72ZM93.68-7.87L95.35 0L96.54 0L97.70-4.74C97.77-5.04 97.83-5.34 97.90-5.63C97.97-5.93 98.04-6.22 98.10-6.53L98.15-6.53C98.21-6.22 98.27-5.93 98.33-5.63C98.39-5.34 98.46-5.04 98.53-4.74L99.72 0L100.92 0L102.55-7.87L101.59-7.87L100.76-3.59C100.68-3.16 100.61-2.74 100.54-2.32C100.46-1.90 100.39-1.48 100.32-1.04L100.27-1.04C100.18-1.48 100.08-1.90 99.98-2.33C99.89-2.75 99.79-3.17 99.70-3.59L98.60-7.87L97.69-7.87L96.60-3.59C96.51-3.16 96.42-2.74 96.32-2.32C96.23-1.90 96.14-1.48 96.05-1.04L96-1.04C95.93-1.48 95.85-1.90 95.77-2.32C95.69-2.73 95.62-3.16 95.54-3.59L94.72-7.87ZM106.75 0.14C107.25 0.14 107.70 0.05 108.11-0.14C108.53-0.34 108.88-0.61 109.18-0.97C109.48-1.32 109.71-1.75 109.88-2.26C110.04-2.77 110.12-3.34 110.12-3.97C110.12-4.60 110.04-5.16 109.88-5.66C109.71-6.16 109.48-6.58 109.18-6.93C108.88-7.28 108.53-7.55 108.11-7.73C107.70-7.92 107.25-8.02 106.75-8.02C106.26-8.02 105.80-7.92 105.39-7.74C104.98-7.56 104.62-7.29 104.33-6.94C104.03-6.59 103.80-6.17 103.64-5.67C103.47-5.17 103.39-4.60 103.39-3.97C103.39-3.34 103.47-2.77 103.64-2.26C103.80-1.75 104.03-1.32 104.33-0.97C104.62-0.61 104.98-0.34 105.39-0.14C105.80 0.05 106.26 0.14 106.75 0.14ZM106.75-0.73C106.40-0.73 106.08-0.81 105.80-0.96C105.51-1.11 105.27-1.33 105.07-1.61C104.86-1.90 104.70-2.24 104.59-2.63C104.48-3.03 104.42-3.48 104.42-3.97C104.42-4.46 104.48-4.90 104.59-5.29C104.70-5.68 104.86-6.02 105.07-6.29C105.27-6.56 105.51-6.77 105.80-6.92C106.08-7.07 106.40-7.14 106.75-7.14C107.10-7.14 107.42-7.07 107.71-6.92C107.99-6.77 108.23-6.56 108.44-6.29C108.64-6.02 108.80-5.68 108.91-5.29C109.02-4.90 109.08-4.46 109.08-3.97C109.08-3.48 109.02-3.03 108.91-2.63C108.80-2.24 108.64-1.90 108.44-1.61C108.23-1.33 107.99-1.11 107.71-0.96C107.42-0.81 107.10-0.73 106.75-0.73ZM112.81-4.14L112.81-7.07L114.13-7.07C114.75-7.07 115.22-6.96 115.55-6.76C115.88-6.55 116.04-6.18 116.04-5.66C116.04-5.15 115.88-4.77 115.55-4.52C115.22-4.27 114.75-4.14 114.13-4.14ZM116.14 0L117.26 0L115.27-3.43C115.81-3.57 116.24-3.82 116.56-4.19C116.88-4.56 117.04-5.05 117.04-5.66C117.04-6.07 116.97-6.42 116.83-6.70C116.70-6.98 116.51-7.20 116.26-7.38C116.02-7.56 115.73-7.68 115.39-7.76C115.05-7.83 114.68-7.87 114.28-7.87L111.82-7.87L111.82 0L112.81 0L112.81-3.32L114.24-3.32ZM118.79-7.87L118.79 0L123.23 0L123.23-0.85L119.78-0.85L119.78-7.87ZM124.62-7.87L124.62 0L126.64 0C127.23 0 127.75-0.09 128.21-0.27C128.66-0.45 129.05-0.71 129.36-1.05C129.67-1.39 129.91-1.81 130.07-2.30C130.23-2.79 130.31-3.35 130.31-3.97C130.31-5.23 129.99-6.19 129.36-6.86C128.73-7.54 127.80-7.87 126.59-7.87ZM126.52-0.82L125.62-0.82L125.62-7.06L126.52-7.06C127.44-7.06 128.13-6.79 128.59-6.26C129.05-5.74 129.28-4.97 129.28-3.97C129.28-2.97 129.05-2.20 128.59-1.64C128.13-1.09 127.44-0.82 126.52-0.82ZM131.12-7.87L132.79 0L133.98 0L135.14-4.74C135.21-5.04 135.27-5.34 135.34-5.63C135.41-5.93 135.48-6.22 135.54-6.53L135.59-6.53C135.65-6.22 135.71-5.93 135.77-5.63C135.83-5.34 135.90-5.04 135.97-4.74L137.16 0L138.36 0L139.99-7.87L139.03-7.87L138.20-3.59C138.12-3.16 138.05-2.74 137.98-2.32C137.90-1.90 137.83-1.48 137.76-1.04L137.71-1.04C137.62-1.48 137.52-1.90 137.42-2.33C137.33-2.75 137.23-3.17 137.14-3.59L136.04-7.87L135.13-7.87L134.04-3.59C133.95-3.16 133.86-2.74 133.76-2.32C133.67-1.90 133.58-1.48 133.49-1.04L133.44-1.04C133.37-1.48 133.29-1.90 133.21-2.32C133.13-2.73 133.06-3.16 132.98-3.59L132.16-7.87ZM141.36-7.87L141.36 0L142.36 0L142.36-7.87ZM144.52-7.87L144.52 0L146.53 0C147.12 0 147.65-0.09 148.10-0.27C148.56-0.45 148.94-0.71 149.26-1.05C149.57-1.39 149.80-1.81 149.96-2.30C150.12-2.79 150.20-3.35 150.20-3.97C150.20-5.23 149.89-6.19 149.26-6.86C148.62-7.54 147.70-7.87 146.48-7.87ZM146.41-0.82L145.51-0.82L145.51-7.06L146.41-7.06C147.33-7.06 148.02-6.79 148.48-6.26C148.94-5.74 149.17-4.97 149.17-3.97C149.17-2.97 148.94-2.20 148.48-1.64C148.02-1.09 147.33-0.82 146.41-0.82ZM151.90-7.87L151.90 0L156.55 0L156.55-0.85L152.89-0.85L152.89-3.71L155.88-3.71L155.88-4.56L152.89-4.56L152.89-7.03L156.43-7.03L156.43-7.87Z" transform="translate(-1.08, 8.016)"/>
          </g>
        </g>
      </g>
    </g>
  </g>
</svg>